<?xml version="1.0" encoding="UTF-8" standalone="no"?>
<svg
   width="64"
   height="64"
   version="1.1"
   id="svg4"
   sodipodi:docname="icon-x-outline.svg"
   inkscape:version="1.1.2 (b8e25be833, 2022-02-05)"
   xmlns:inkscape="http://www.inkscape.org/namespaces/inkscape"
   xmlns:sodipodi="http://sodipodi.sourceforge.net/DTD/sodipodi-0.dtd"
   xmlns="http://www.w3.org/2000/svg"
   xmlns:svg="http://www.w3.org/2000/svg">
  <defs
     id="defs8" />
  <sodipodi:namedview
     id="namedview6"
     pagecolor="#505050"
     bordercolor="#eeeeee"
     borderopacity="1"
     inkscape:pageshadow="0"
     inkscape:pageopacity="0"
     inkscape:pagecheckerboard="0"
     showgrid="false"
     inkscape:zoom="13.640625"
     inkscape:cx="31.963345"
     inkscape:cy="31.963345"
     inkscape:window-width="3440"
     inkscape:window-height="1385"
     inkscape:window-x="-8"
     inkscape:window-y="-8"
     inkscape:window-maximized="1"
     inkscape:current-layer="svg4" />
  <path
     style="color:#000000;fill:#31c3bd;-inkscape-stroke:none"
     d="m 12.880859,0.26953125 c -0.765905,0 -1.539,0.29681318 -2.121093,0.87890625 L 1.1484375,10.759766 c -0.58209307,0.582093 -0.87890625,1.355188 -0.87890625,2.121093 -8.2248e-4,0.796189 0.31512909,1.560844 0.87890625,2.123047 L 18.144531,32 1.1484375,48.998047 c -0.58103327,0.581033 -0.87843918,1.353825 -0.87890625,2.11914 -0.001222,0.796708 0.31476074,1.562431 0.87890625,2.125 l 9.6093755,9.609375 c 0.562569,0.564146 1.328292,0.880129 2.125,0.878907 0.765317,-4.66e-4 1.539912,-0.296235 2.121093,-0.878907 L 32,45.855469 48.996094,62.851562 c 0.562203,0.563778 1.326858,0.879729 2.123047,0.878907 0.765905,0 1.539,-0.296813 2.121093,-0.878907 l 9.611328,-9.611328 c 0.582094,-0.582093 0.878907,-1.355188 0.878907,-2.121093 0,-0.765304 -0.296685,-1.53961 -0.878907,-2.121094 v -0.002 L 45.855469,32 62.851562,15.001953 c 0.581491,-0.58149 0.878907,-1.355188 0.878907,-2.121094 0,-0.765905 -0.296813,-1.539 -0.878907,-2.121093 L 53.240234,1.1484375 C 52.658141,0.56634443 51.884543,0.26953125 51.119141,0.26953125 c -0.765906,0 -1.541409,0.29577689 -2.123047,0.87890625 L 32,18.144531 15.001953,1.1484375 C 14.420463,0.56694725 13.646765,0.26953125 12.880859,0.26953125 Z m 0,2.00000005 c 0.258094,0 0.506523,0.09246 0.707032,0.2929687 L 32,20.972656 50.412109,2.5625 v -0.00195 c 0.198362,-0.1988699 0.448938,-0.2910157 0.707032,-0.2910156 0.256596,0 0.507125,0.093062 0.707031,0.2929687 l 9.611328,9.611328 c 0.199906,0.199906 0.292969,0.448938 0.292969,0.707031 0,0.258094 -0.09246,0.506523 -0.292969,0.707032 L 43.027344,32 61.4375,50.412109 h 0.002 c 0.19887,0.198362 0.291016,0.448938 0.291016,0.707032 0,0.258093 -0.09306,0.507125 -0.292969,0.707031 L 51.826172,61.4375 c -0.199906,0.199906 -0.448938,0.292969 -0.707031,0.292969 h -0.002 c -0.264852,2.73e-4 -0.516108,-0.103475 -0.703125,-0.291016 l -0.002,-0.002 L 32,43.027344 13.587891,61.4375 v 0.002 c -0.198362,0.19887 -0.448938,0.291016 -0.707032,0.291016 h -0.002 c -0.265026,4.06e-4 -0.517938,-0.103352 -0.705078,-0.291016 v -0.002 L 2.5625,51.826172 h -0.00195 C 2.3728829,51.639032 2.2691247,51.38612 2.2695313,51.121094 v -0.002 c 0,-0.258094 0.09246,-0.506523 0.2929687,-0.707032 L 20.972656,32 2.5625,13.587891 l -0.00195,-0.002 C 2.3730064,13.398921 2.2692577,13.147665 2.2695313,12.882813 v -0.002 c 0,-0.258093 0.093062,-0.507125 0.2929687,-0.707031 L 12.173828,2.5625 c 0.199906,-0.1999062 0.448938,-0.2929688 0.707031,-0.2929687 z"
     id="path2" />
</svg>
