<?xml version="1.0" encoding="UTF-8" standalone="no"?>
<svg
   width="66"
   height="66"
   version="1.1"
   id="svg4"
   sodipodi:docname="icon-o-outline.svg"
   inkscape:version="1.1.2 (b8e25be833, 2022-02-05)"
   xmlns:inkscape="http://www.inkscape.org/namespaces/inkscape"
   xmlns:sodipodi="http://sodipodi.sourceforge.net/DTD/sodipodi-0.dtd"
   xmlns="http://www.w3.org/2000/svg"
   xmlns:svg="http://www.w3.org/2000/svg">
  <defs
     id="defs8" />
  <sodipodi:namedview
     id="namedview6"
     pagecolor="#505050"
     bordercolor="#eeeeee"
     borderopacity="1"
     inkscape:pageshadow="0"
     inkscape:pageopacity="0"
     inkscape:pagecheckerboard="0"
     showgrid="false"
     inkscape:zoom="13.227273"
     inkscape:cx="32.962199"
     inkscape:cy="33.037801"
     inkscape:window-width="3440"
     inkscape:window-height="1385"
     inkscape:window-x="-8"
     inkscape:window-y="-8"
     inkscape:window-maximized="1"
     inkscape:current-layer="svg4" />
  <path
     style="color:#000000;fill:#f2b137;-inkscape-stroke:none"
     d="M 33,0 C 14.78657,0 0,14.78657 0,33 0,51.21343 14.78657,66 33,66 51.21343,66 66,51.21343 66,33 66,14.78657 51.21343,0 33,0 Z m 0,2 C 50.132535,2 64,15.867465 64,33 64,50.132535 50.132535,64 33,64 15.867465,64 2,50.132535 2,33 2,15.867465 15.867465,2 33,2 Z m 0,16.962891 c -7.740455,0 -14.037109,6.296654 -14.037109,14.037109 0,7.740455 6.296654,14.037109 14.037109,14.037109 7.740455,0 14.037109,-6.296654 14.037109,-14.037109 0,-7.740455 -6.296654,-14.037109 -14.037109,-14.037109 z m 0,2 C 39.65953,20.962891 45.037109,26.34047 45.037109,33 45.037109,39.65953 39.65953,45.037109 33,45.037109 26.34047,45.037109 20.962891,39.65953 20.962891,33 20.962891,26.34047 26.34047,20.962891 33,20.962891 Z"
     id="path2" />
</svg>
